<svg width="1819" height="1101" viewBox="0 0 1819 1101" fill="none" xmlns="http://www.w3.org/2000/svg">
<path fill-rule="evenodd" clip-rule="evenodd" d="M28.5 1H0V0H1818.5V1H1789.5V110H1818.5V111H1789.5V220H1818.5V221H1789.5V330H1818.5V331H1789.5V440H1818.5V441H1789.5V550H1818.5V551H1789.5V660H1818.5V661H1789.5V770H1818.5V771H1789.5V880H1818.5V881H1789.5V990H1818.5V991H1789.5V1100H1818.5V1101H0V1100H28.5V991H0V990H28.5V881H0V880H28.5V771H0V770H28.5V661H0V660H28.5V551H0V550H28.5V441H0V440H28.5V331H0V330H28.5V221H0V220H28.5V111H0V110H28.5V1ZM29.5 1V110H138.5V1H29.5ZM139.5 1V110H248.5V1H139.5ZM249.5 1V110H358.5V1H249.5ZM359.5 1V110H468.5V1H359.5ZM469.5 1V110H578.5V1H469.5ZM579.5 1V110H688.5V1H579.5ZM689.5 1V110H798.5V1H689.5ZM799.5 1V110H908.5V1H799.5ZM909.5 1V110H1018.5V1H909.5ZM1019.5 1V110H1128.5V1H1019.5ZM1129.5 1V110H1238.5V1H1129.5ZM1239.5 1V110H1348.5V1H1239.5ZM1349.5 1V110H1458.5V1H1349.5ZM1459.5 1V110H1568.5V1H1459.5ZM1569.5 1V110H1678.5V1H1569.5ZM1679.5 1V110H1788.5V1H1679.5ZM1788.5 111H1679.5V220H1788.5V111ZM1788.5 221H1679.5V330H1788.5V221ZM1788.5 331H1679.5V440H1788.5V331ZM1788.5 441H1679.5V550H1788.5V441ZM1788.5 551H1679.5V660H1788.5V551ZM1788.5 661H1679.5V770H1788.5V661ZM1788.5 771H1679.5V880H1788.5V771ZM1788.5 881H1679.5V990H1788.5V881ZM1788.5 991H1679.5V1100H1788.5V991ZM1678.5 1100V991H1569.5V1100H1678.5ZM1568.5 1100V991H1459.5V1100H1568.5ZM1458.5 1100V991H1349.5V1100H1458.5ZM1348.5 1100V991H1239.5V1100H1348.5ZM1238.5 1100V991H1129.5V1100H1238.5ZM1128.5 1100V991H1019.5V1100H1128.5ZM1018.5 1100V991H909.5V1100H1018.5ZM908.5 1100V991H799.5V1100H908.5ZM798.5 1100V991H689.5V1100H798.5ZM688.5 1100V991H579.5V1100H688.5ZM578.5 1100V991H469.5V1100H578.5ZM468.5 1100V991H359.5V1100H468.5ZM358.5 1100V991H249.5V1100H358.5ZM248.5 1100V991H139.5V1100H248.5ZM138.5 1100V991H29.5V1100H138.5ZM29.5 990H138.5V881H29.5V990ZM29.5 880H138.5V771H29.5V880ZM29.5 770H138.5V661H29.5V770ZM29.5 660H138.5V551H29.5V660ZM29.5 550H138.5V441H29.5V550ZM29.5 440H138.5V331H29.5V440ZM29.5 330H138.5V221H29.5V330ZM29.5 220H138.5V111H29.5V220ZM139.5 111V220H248.5V111H139.5ZM249.5 111V220H358.5V111H249.5ZM359.5 111V220H468.5V111H359.5ZM469.5 111V220H578.5V111H469.5ZM579.5 111V220H688.5V111H579.5ZM689.5 111V220H798.5V111H689.5ZM799.5 111V220H908.5V111H799.5ZM909.5 111V220H1018.5V111H909.5ZM1019.5 111V220H1128.5V111H1019.5ZM1129.5 111V220H1238.5V111H1129.5ZM1239.5 111V220H1348.5V111H1239.5ZM1349.5 111V220H1458.5V111H1349.5ZM1459.5 111V220H1568.5V111H1459.5ZM1569.5 111V220H1678.5V111H1569.5ZM1678.5 221H1569.5V330H1678.5V221ZM1678.5 331H1569.5V440H1678.5V331ZM1678.5 441H1569.5V550H1678.5V441ZM1678.5 551H1569.5V660H1678.5V551ZM1678.5 661H1569.5V770H1678.5V661ZM1678.5 771H1569.5V880H1678.5V771ZM1678.5 881H1569.5V990H1678.5V881ZM1568.5 990V881H1459.5V990H1568.5ZM1458.5 990V881H1349.5V990H1458.5ZM1348.5 990V881H1239.5V990H1348.5ZM1238.5 990V881H1129.5V990H1238.5ZM1128.5 990V881H1019.5V990H1128.5ZM1018.5 990V881H909.5V990H1018.5ZM908.5 990V881H799.5V990H908.5ZM798.5 990V881H689.5V990H798.5ZM688.5 990V881H579.5V990H688.5ZM578.5 990V881H469.5V990H578.5ZM468.5 990V881H359.5V990H468.5ZM358.5 990V881H249.5V990H358.5ZM248.5 990V881H139.5V990H248.5ZM139.5 880H248.5V771H139.5V880ZM139.5 770H248.5V661H139.5V770ZM139.5 660H248.5V551H139.5V660ZM139.5 550H248.5V441H139.5V550ZM139.5 440H248.5V331H139.5V440ZM139.5 330H248.5V221H139.5V330ZM249.5 221V330H358.5V221H249.5ZM359.5 221V330H468.5V221H359.5ZM469.5 221V330H578.5V221H469.5ZM579.5 221V330H688.5V221H579.5ZM689.5 221V330H798.5V221H689.5ZM799.5 221V330H908.5V221H799.5ZM909.5 221V330H1018.5V221H909.5ZM1019.5 221V330H1128.5V221H1019.5ZM1129.5 221V330H1238.5V221H1129.5ZM1239.5 221V330H1348.5V221H1239.5ZM1349.5 221V330H1458.5V221H1349.5ZM1459.5 221V330H1568.5V221H1459.5ZM1568.5 331H1459.5V440H1568.5V331ZM1568.5 441H1459.5V550H1568.5V441ZM1568.5 551H1459.5V660H1568.5V551ZM1568.5 661H1459.5V770H1568.5V661ZM1568.5 771H1459.5V880H1568.5V771ZM1458.5 880V771H1349.5V880H1458.5ZM1348.5 880V771H1239.5V880H1348.5ZM1238.5 880V771H1129.5V880H1238.5ZM1128.5 880V771H1019.5V880H1128.5ZM1018.5 880V771H909.5V880H1018.5ZM908.5 880V771H799.5V880H908.5ZM798.5 880V771H689.5V880H798.5ZM688.5 880V771H579.5V880H688.5ZM578.5 880V771H469.5V880H578.5ZM468.5 880V771H359.5V880H468.5ZM358.5 880V771H249.5V880H358.5ZM249.5 770H358.5V661H249.5V770ZM249.5 660H358.5V551H249.5V660ZM249.5 550H358.5V441H249.5V550ZM249.5 440H358.5V331H249.5V440ZM359.5 331V440H468.5V331H359.5ZM469.5 331V440H578.5V331H469.5ZM579.5 331V440H688.5V331H579.5ZM689.5 331V440H798.5V331H689.5ZM799.5 331V440H908.5V331H799.5ZM909.5 331V440H1018.5V331H909.5ZM1019.5 331V440H1128.5V331H1019.5ZM1129.5 331V440H1238.5V331H1129.5ZM1239.5 331V440H1348.5V331H1239.5ZM1349.5 331V440H1458.5V331H1349.5ZM1458.5 441H1349.5V550H1458.5V441ZM1458.5 551H1349.5V660H1458.5V551ZM1458.5 661H1349.5V770H1458.5V661ZM1348.5 770V661H1239.5V770H1348.5ZM1238.5 770V661H1129.5V770H1238.5ZM1128.5 770V661H1019.5V770H1128.5ZM1018.5 770V661H909.5V770H1018.5ZM908.5 770V661H799.5V770H908.5ZM798.5 770V661H689.5V770H798.5ZM688.5 770V661H579.5V770H688.5ZM578.5 770V661H469.5V770H578.5ZM468.5 770V661H359.5V770H468.5ZM359.5 660H468.5V551H359.5V660ZM359.5 550H468.5V441H359.5V550ZM469.5 441V550H578.5V441H469.5ZM579.5 441V550H688.5V441H579.5ZM689.5 441V550H798.5V441H689.5ZM799.5 441V550H908.5V441H799.5ZM909.5 441V550H1018.5V441H909.5ZM1019.5 441V550H1128.5V441H1019.5ZM1129.5 441V550H1238.5V441H1129.5ZM1239.5 441V550H1348.5V441H1239.5ZM1348.5 551H1239.5V660H1348.5V551ZM1238.5 660V551H1129.5V660H1238.5ZM1128.5 660V551H1019.5V660H1128.5ZM1018.5 660V551H909.5V660H1018.5ZM908.5 660V551H799.5V660H908.5ZM798.5 660V551H689.5V660H798.5ZM688.5 660V551H579.5V660H688.5ZM578.5 660V551H469.5V660H578.5Z" fill="url(#paint0_radial_156_4)" fill-opacity="0.5"/>
<defs>
<radialGradient id="paint0_radial_156_4" cx="0" cy="0" r="1" gradientUnits="userSpaceOnUse" gradientTransform="translate(909.25 550.5) rotate(90) scale(550.5 909.25)">
<stop stop-color="#6FEAA4" stop-opacity="0.5"/>
<stop offset="1" stop-color="#6FEAA4" stop-opacity="0"/>
</radialGradient>
</defs>
</svg>
